<?xml version="1.0" encoding="iso-8859-1"?>
<!-- Generator: Adobe Illustrator 21.0.2, SVG Export Plug-In . SVG Version: 6.00 Build 0)  -->
<svg version="1.1" xmlns="http://www.w3.org/2000/svg" xmlns:xlink="http://www.w3.org/1999/xlink" x="0px" y="0px"
	 viewBox="0 0 64 64" style="enable-background:new 0 0 64 64;" xml:space="preserve">
<g id="spinning_top">
</g>
<g id="boat">
</g>
<g id="rocking_horse">
</g>
<g id="truck">
</g>
<g id="shirt">
</g>
<g id="gameboy">
</g>
<g id="castle">
</g>
<g id="train">
</g>
<g id="baby_mobile">
</g>
<g id="car">
</g>
<g id="duck">
</g>
<g id="balloon">
</g>
<g id="piano">
	<g>
		<g>
			<path d="M61.2979,53.1963H2.7017C1.7632,53.1963,1,52.4336,1,51.4951V12.502c0-0.9385,0.7632-1.7017,1.7017-1.7017h58.5962
				c0.9385,0,1.7021,0.7632,1.7021,1.7017v38.9932C63,52.4336,62.2363,53.1963,61.2979,53.1963z M3,51.1963h58v-38.396H3V51.1963z
				 M61.2979,12.8003h0.0098H61.2979z"/>
		</g>
		<g>
			<path d="M62,30.0234H2c-0.5522,0-1-0.4478-1-1s0.4478-1,1-1h60c0.5527,0,1,0.4478,1,1S62.5527,30.0234,62,30.0234z"/>
		</g>
		<g>
			<path d="M17.2798,44.9482h-6.561c-0.8735,0-1.5845-0.709-1.5845-1.5811V29.0234c0-0.5522,0.4478-1,1-1h7.73
				c0.5522,0,1,0.4478,1,1v14.3438C18.8643,44.2393,18.1533,44.9482,17.2798,44.9482z M11.1343,42.9482h5.73V30.0234h-5.73V42.9482z
				"/>
		</g>
		<g>
			<path d="M29.2554,44.9512h-6.5132c-0.8867,0-1.6084-0.7217-1.6084-1.6084V29.0269c0-0.5522,0.4478-1,1-1h7.7261
				c0.5522,0,1,0.4478,1,1v14.3159C30.8599,44.2295,30.1401,44.9512,29.2554,44.9512z M23.1338,42.9512h5.7261V30.0269h-5.7261
				V42.9512z"/>
		</g>
		<g>
			<path d="M53.2676,44.875h-6.5342c-0.8809,0-1.5977-0.7168-1.5977-1.5977V28.9473c0-0.5522,0.4473-1,1-1h7.7295
				c0.5527,0,1,0.4478,1,1v14.3301C54.8652,44.1582,54.1484,44.875,53.2676,44.875z M47.1357,42.875h5.7295V29.9473h-5.7295V42.875z
				"/>
		</g>
		<g>
			<path d="M43.6982,24.3159H20.0664c-0.5522,0-1-0.4478-1-1v-6.2402c0-0.5522,0.4478-1,1-1h23.6318c0.5527,0,1,0.4478,1,1v6.2402
				C44.6982,23.8682,44.251,24.3159,43.6982,24.3159z M21.0664,22.3159h21.6318v-4.2402H21.0664V22.3159z"/>
		</g>
		<g>
			<path d="M10.9399,25.0522c-2.5894,0-4.6958-2.0957-4.6958-4.6714c0-2.5762,2.1064-4.6719,4.6958-4.6719
				c2.5889,0,4.6953,2.0957,4.6953,4.6719C15.6353,22.9565,13.5288,25.0522,10.9399,25.0522z M10.9399,17.709
				c-1.4863,0-2.6958,1.1987-2.6958,2.6719s1.2095,2.6714,2.6958,2.6714s2.6953-1.1982,2.6953-2.6714S12.4263,17.709,10.9399,17.709
				z"/>
		</g>
		<g>
			<path d="M52.4756,24.7373c-2.5908,0-4.6982-2.0957-4.6982-4.6714s2.1074-4.6714,4.6982-4.6714
				c2.5898,0,4.6963,2.0957,4.6963,4.6714S55.0654,24.7373,52.4756,24.7373z M52.4756,17.3945
				c-1.4883,0-2.6982,1.1982-2.6982,2.6714s1.21,2.6714,2.6982,2.6714c1.4863,0,2.6963-1.1982,2.6963-2.6714
				S53.9619,17.3945,52.4756,17.3945z"/>
		</g>
		<g>
			<path d="M13.9995,53.1963c-0.5522,0-1-0.4473-1-1v-8.248c0-0.5527,0.4478-1,1-1s1,0.4473,1,1v8.248
				C14.9995,52.749,14.5518,53.1963,13.9995,53.1963z"/>
		</g>
		<g>
			<path d="M38.001,53.1963c-0.5527,0-1-0.4473-1-1V29.0234c0-0.5522,0.4473-1,1-1s1,0.4478,1,1v23.1729
				C39.001,52.749,38.5537,53.1963,38.001,53.1963z"/>
		</g>
		<g>
			<path d="M50.001,53.1963c-0.5527,0-1-0.4473-1-1V43.875c0-0.5527,0.4473-1,1-1s1,0.4473,1,1v8.3213
				C51.001,52.749,50.5537,53.1963,50.001,53.1963z"/>
		</g>
		<g>
			<path d="M25.9985,53.2002c-0.5522,0-1-0.4473-1-1v-8.249c0-0.5527,0.4478-1,1-1s1,0.4473,1,1v8.249
				C26.9985,52.7529,26.5508,53.2002,25.9985,53.2002z"/>
		</g>
	</g>
</g>
<g id="robot">
</g>
<g id="puzzle">
</g>
<g id="roller_skate">
</g>
<g id="house">
</g>
<g id="fidget_spinner">
</g>
<g id="rattel">
</g>
<g id="rc_car">
</g>
<g id="ball">
</g>
<g id="candy">
</g>
<g id="doll">
</g>
<g id="plane">
</g>
<g id="bloks">
</g>
</svg>
